PathFileType	4	(X/Y/Z)	s01c0001.trc
DataRate	CameraRate	NumFrames	NumMarkers	Units	OrigDataRate	OrigDataStartFrame	OrigNumFrames
200	200	4	49	mm	200	1750	2000
Frame#	Time	racr			lacr			c7			jug			rlel			rdr			llel			ldr			s2			lic			ric			lasi			rasi			rpsi			lpsi			rgt			lgt			rth1			rth2			rth3			rth4			rlfc			rmfc			rsh1			rsh2			rsh3			rsh4			rlmal			rmmal			rcal			rtoe			rmt5			rmt1			lth1			lth2			lth4			lth3			llfc			lmfc			lsh1			lsh2			lsh3			lsh4			llmal			lmmal			lcal			ltoe			lmt1			lmt5			
		X1	Y1	Z1	X2	Y2	Z2	X3	Y3	Z3	X4	Y4	Z4	X5	Y5	Z5	X6	Y6	Z6	X7	Y7	Z7	X8	Y8	Z8	X9	Y9	Z9	X10	Y10	Z10	X11	Y11	Z11	X12	Y12	Z12	X13	Y13	Z13	X14	Y14	Z14	X15	Y15	Z15	X16	Y16	Z16	X17	Y17	Z17	X18	Y18	Z18	X19	Y19	Z19	X20	Y20	Z20	X21	Y21	Z21	X22	Y22	Z22	X23	Y23	Z23	X24	Y24	Z24	X25	Y25	Z25	X26	Y26	Z26	X27	Y27	Z27	X28	Y28	Z28	X29	Y29	Z29	X30	Y30	Z30	X31	Y31	Z31	X32	Y32	Z32	X33	Y33	Z33	X34	Y34	Z34	X35	Y35	Z35	X36	Y36	Z36	X37	Y37	Z37	X38	Y38	Z38	X39	Y39	Z39	X40	Y40	Z40	X41	Y41	Z41	X42	Y42	Z42	X43	Y43	Z43	X44	Y44	Z44	X45	Y45	Z45	X46	Y46	Z46	X47	Y47	Z47	X48	Y48	Z48	X49	Y49	Z49	
1750	8.7500	506.513428	1503.041382	-350.592804	313.733185	1484.361938	-689.526001	386.489441	1531.711304	-498.201965	516.503052	1460.091431	-568.609741	568.428894	1256.409546	-185.238388	728.256653	1060.353882	-74.889771	214.120804	1212.979980	-784.353394	217.688507	1006.370605	-954.857849	340.572662	1020.710754	-458.948486	369.715485	1090.549927	-676.837280	545.980103	1061.765503	-393.609619	420.667358	1025.812500	-679.156372	573.174622	1014.130859	-445.304596	383.115234	1051.338501	-421.752899	327.502167	1055.019531	-511.600891	516.777954	928.093079	-358.956757	336.637756	922.814331	-681.769287	537.753113	808.655151	-348.995331	542.985962	726.625244	-358.952423	536.405457	637.056885	-374.170349	580.693115	730.431580	-398.716248	505.573517	517.253540	-387.392303	445.123749	493.155243	-475.975739	491.151398	401.847412	-338.402130	485.811127	317.602203	-343.504944	470.015564	229.286331	-352.516846	510.673248	317.256805	-399.964233	447.283325	99.096870	-371.471100	447.645538	122.434937	-459.243195	393.697021	67.877739	-415.832550	651.968689	91.520409	-492.353546	581.516052	50.457829	-391.190704	561.328918	62.177105	-504.600403	321.149475	803.315918	-687.872986	340.743988	717.237549	-689.033813	390.825104	727.226990	-708.539185	357.150055	633.912781	-676.625854	364.984558	520.483521	-653.564270	392.760437	489.686554	-546.417419	306.275726	410.577637	-665.992981	304.337830	323.888336	-657.290405	305.157623	238.944748	-639.526306	367.061615	323.075867	-654.964661	317.427582	105.020248	-619.861084	382.702515	116.305145	-558.632568	304.853333	64.594788	-560.206787	543.522522	96.728523	-692.396301	498.550934	65.636063	-617.261353	426.116364	57.324615	-707.105408	
1751	8.7550	506.458832	1503.033325	-350.577454	313.728027	1484.363159	-689.535645	386.458374	1531.712646	-498.192993	516.474854	1460.088379	-568.603882	568.412720	1256.391357	-185.256561	728.266174	1060.332886	-74.956459	214.091507	1212.944824	-784.327759	217.669159	1006.366638	-954.852478	340.579773	1020.711060	-458.936920	369.720551	1090.542725	-676.832275	545.975647	1061.768066	-393.596680	420.661499	1025.804443	-679.150330	573.194153	1014.143738	-445.303864	383.119232	1051.351807	-421.748413	327.497833	1055.010864	-511.594910	516.776672	928.088806	-358.950562	336.628601	922.821411	-681.771912	537.763245	808.635437	-349.002350	542.986511	726.629150	-358.951385	536.413940	637.041931	-374.164581	580.678833	730.435669	-398.698029	505.585693	517.274231	-387.411163	445.123688	493.156372	-475.974854	491.157074	401.840057	-338.408447	485.777039	317.579559	-343.485870	470.000702	229.276260	-352.501740	510.678833	317.248199	-399.954742	447.282990	99.096169	-371.471283	447.643799	122.437576	-459.241516	393.688812	67.871277	-415.831268	651.969727	91.516541	-492.352936	581.517273	50.459198	-391.202637	561.328918	62.177094	-504.600433	321.141541	803.316711	-687.856079	340.739899	717.250488	-689.029541	390.848724	727.205444	-708.497498	357.154358	633.897583	-676.619385	364.952332	520.490295	-653.561218	392.751099	489.700897	-546.387207	306.260925	410.576141	-665.970886	304.328400	323.892059	-657.274170	305.155762	238.948059	-639.521240	367.054016	323.080231	-654.960449	317.429901	105.016655	-619.862854	382.699585	116.319206	-558.629272	304.875824	64.572449	-560.196533	543.514587	96.736649	-692.395386	498.539551	65.620842	-617.256592	426.117645	57.327454	-707.098083	
1752	8.7600	506.402832	1503.019287	-350.567017	313.689789	1484.341675	-689.531433	386.403076	1531.721802	-498.228180	516.444641	1460.075684	-568.570923	568.387390	1256.375122	-185.284698	728.270203	1060.305420	-75.007912	214.061249	1212.958496	-784.348083	217.652710	1006.364563	-954.845825	340.600098	1020.714539	-458.922913	369.901306	1090.652222	-676.825745	546.009766	1061.759033	-393.580750	420.646790	1025.808105	-679.141296	573.197754	1014.142456	-445.302185	383.122498	1051.356567	-421.735016	327.519531	1055.015381	-511.575317	516.799072	928.096008	-358.947998	336.627625	922.824158	-681.749634	537.774963	808.635681	-348.997742	542.998169	726.618347	-358.944580	536.423035	637.059753	-374.161346	580.699097	730.424438	-398.701477	505.587402	517.274658	-387.403351	445.125061	493.156067	-475.977844	491.157898	401.853424	-338.406067	485.784058	317.583679	-343.499603	470.005829	229.274521	-352.511932	510.685974	317.257446	-399.956635	447.269501	99.093422	-371.476288	447.644409	122.439133	-459.243500	393.693542	67.869568	-415.834595	651.965332	91.518776	-492.357178	581.500610	50.446613	-391.191650	561.329895	62.176247	-504.597687	321.132751	803.316040	-687.841919	340.732361	717.243774	-688.997070	390.810394	727.235718	-708.515625	357.136566	633.905579	-676.609680	364.967651	520.491516	-653.533691	392.772552	489.693787	-546.398193	306.270935	410.582947	-665.965271	304.332825	323.901550	-657.258118	305.153198	238.951965	-639.514832	367.051208	323.082733	-654.956055	317.446075	105.016731	-619.852661	382.702423	116.326851	-558.632507	304.856445	64.582642	-560.202637	543.517639	96.721756	-692.392090	498.536896	65.641251	-617.262756	426.094055	57.326229	-707.108582	
1753	8.7650	506.357910	1503.006592	-350.557007	313.651489	1484.336670	-689.492676	386.373840	1531.727661	-498.209259	516.423706	1460.069458	-568.580017	568.356445	1256.336792	-185.286652	728.283691	1060.282593	-75.079407	214.046066	1212.944092	-784.339966	217.631744	1006.357849	-954.853149	340.597137	1020.718079	-458.908173	369.885620	1090.647339	-676.819153	546.012878	1061.763550	-393.563477	420.661621	1025.803467	-679.131531	573.208130	1014.143616	-445.296783	383.130981	1051.354492	-421.709930	327.513245	1054.991211	-511.565399	516.803345	928.097107	-358.940186	336.631256	922.820374	-681.748047	537.798828	808.637695	-349.008545	543.006165	726.623413	-358.954468	536.429138	637.050110	-374.171143	580.701660	730.430908	-398.697296	505.608276	517.271667	-387.383453	445.100983	493.172394	-475.953094	491.162659	401.846863	-338.402924	485.825134	317.578857	-343.501129	470.018433	229.265396	-352.514618	510.686005	317.248077	-399.961853	447.270569	99.108101	-371.472443	447.645325	122.439217	-459.242584	393.688843	67.871269	-415.831268	651.962280	91.523506	-492.363129	581.507446	50.471119	-391.196655	561.329895	62.176128	-504.597961	321.125427	803.315491	-687.829651	340.718262	717.236450	-688.989563	390.807251	727.236328	-708.504028	357.131561	633.912903	-676.605103	364.967987	520.491150	-653.533630	392.774170	489.697235	-546.386536	306.263763	410.586548	-665.959839	304.329132	323.903198	-657.268982	305.151031	238.953476	-639.510254	367.048462	323.083191	-654.951721	317.447601	105.016960	-619.853027	382.700958	116.312996	-558.626465	304.847687	64.592644	-560.199280	543.517944	96.720688	-692.393555	498.545532	65.632767	-617.260376	426.115997	57.324245	-707.104004	
